<svg width="337" height="337" viewBox="0 0 337 337" fill="none" xmlns="http://www.w3.org/2000/svg">
<path d="M81.0427 78.416L46.4753 143.117C42.1615 151.214 40 160.101 40 169C40 177.9 42.1615 186.785 46.4753 194.883L81.0427 259.585C87.4141 271.536 99.8743 279 113.434 279H150.151V260.671H150.139C143.365 260.671 137.135 256.944 133.949 250.97L99.3945 186.256C96.5067 180.861 95.0674 174.937 95.0674 169C95.0674 163.062 96.5067 157.138 99.3945 151.745L133.949 87.0313C137.135 81.0553 143.365 77.3299 150.139 77.3299H150.151V59H113.434C99.8743 59 87.4141 66.4653 81.0427 78.416Z" fill="#111111"/>
<path d="M290.525 143.117L255.959 78.4165C249.586 66.4645 237.127 59.0004 223.567 59.0004H186.849V77.3291H186.862C193.636 77.3291 199.866 81.0558 203.051 87.0304L237.605 151.744C240.495 157.139 241.931 163.063 241.931 169C241.931 174.938 240.495 180.862 237.605 186.256L203.051 250.969C199.866 256.945 193.636 260.67 186.862 260.67H186.849V279H223.567C237.127 279 249.586 271.536 255.959 259.584L290.525 194.883C294.837 186.786 297 177.899 297 169C297 160.101 294.837 151.215 290.525 143.117Z" fill="#111111"/>
</svg>
